# xmcd
#
# Track frame offsets:
#	150
#	24840
#	45115
#	68827
#	83345
#	101870
#	111602
#	125255
#	134047
#	152432
#	164317
#	178092
#	192232
#	203245
#
# Disc length: 3001 seconds
#
# Revision: 2
# Processed by: cddbd v1.5.2PL0 Copyright (c) Steve Scherf et al.
# Submitted via: audiograbber 1.83.01
#
DISCID=b50bb70e
DTITLE=Various Artist - Wereldsterren Wensen U Een Vrolijk Kerstfeest
DYEAR=1982
DGENRE=Kerst
TTITLE0=Mahalia Jackson - Silent Night, Holy Night - [1959]
TTITLE1=Caravelli - Ave Maria - [1980]
TTITLE2=Ray Conniff Singers - Let it snow, let it snow/Count blessings/We wish 
TTITLE2=you a merry Christmas - [1967]
TTITLE3=Caravelli - Noel Blanc - [1980]
TTITLE4=Thijs van Leer, Rogier van Otterloo and Louis van Dijk - Er is een kindek
TTITLE4=e geboren op aard - [1976]
TTITLE5=Sions Kinderkoor - Gloria in Excelsis Deo - [1964]
TTITLE6=Tex Beneke, Ray Eberly and the Modernaires with Paula Kelly - The Chris
TTITLE6=tmas Song - [1946]
TTITLE7=Eydie Gorme and The Trio Los Panchos - Gloria A dios en las Alturas - [19
TTITLE7=69]
TTITLE8=Engelbert Humperdink - Home Time/There's No Place Like a home Christmas
TTITLE8=/I'll Be Home For Christmas - [1977]
TTITLE9=Ray Connifff Singers - Winter Wonderland - [1967]
TTITLE10=Doris day - Have yourseld a Merry Little Christmas - [1972]
TTITLE11=Andy Williams - The first Noel - [1969]
TTITLE12=Ivan Rebroff - O Tannenbaum (Ach Jolotschka) - [1969]
TTITLE13=Thijs van Leer, Rogier van Otterloo and Louis van Dijk - Hoe leit dit ki
TTITLE13=ndeke - [1976]
EXTD=
EXTT0=
EXTT1=
EXTT2=
EXTT3=
EXTT4=
EXTT5=
EXTT6=
EXTT7=
EXTT8=
EXTT9=
EXTT10=
EXTT11=
EXTT12=
EXTT13=
PLAYORDER=
